<?xml version="1.0" encoding="utf-8"?>
<!DOCTYPE svg PUBLIC "-//W3C//DTD SVG 20010904//EN" "http://www.w3.org/TR/2001/REC-SVG-20010904/DTD/svg10.dtd">
<svg version="1.0" xmlns="http://www.w3.org/2000/svg" width="510pt" height="510pt" viewBox="0 0 510 510" style=""
     preserveAspectRatio="xMidYMid meet">
    <g fill="#00FDD1" stroke="#00FDD1">
        <path d="M 186.488 37.846 C 186.297 38.037 188.021 40.120 190.320 42.474 C 197.571 49.901 206.000 60.302 206.000 61.823 C 206.000 62.392 206.567 63.452 207.260 64.179 C 208.738 65.729 210.591 71.988 212.173 80.769 C 213.000 85.362 213.013 90.185 212.220 98.807 C 211.152 110.425 210.101 114.204 204.607 126.186 C 203.173 129.313 202.000 132.281 202.000 132.781 C 202.000 133.281 201.100 134.505 200.000 135.500 C 198.900 136.495 198.000 137.709 198.000 138.197 C 198.000 139.221 197.367 139.989 190.256 147.600 L 185.012 153.212 186.746 156.147 C 187.700 157.762 189.609 159.323 190.990 159.617 C 196.138 160.713 209.578 165.238 211.715 166.594 C 212.933 167.367 214.461 168.000 215.111 168.000 C 215.761 168.000 218.674 169.580 221.584 171.512 C 226.872 175.022 230.335 178.009 242.733 189.750 C 246.363 193.188 249.707 196.000 250.166 196.000 C 250.625 196.000 251.000 196.605 251.000 197.345 C 251.000 198.085 251.921 199.524 253.047 200.543 C 254.173 201.561 256.056 204.106 257.231 206.198 C 258.407 208.289 259.691 210.000 260.086 210.000 C 260.481 210.000 261.275 211.350 261.850 213.000 C 262.425 214.650 263.369 216.000 263.948 216.000 C 264.527 216.000 264.921 216.338 264.825 216.750 C 264.536 217.994 267.255 223.000 268.220 223.000 C 268.714 223.000 268.861 223.416 268.546 223.925 C 268.232 224.434 268.399 225.896 268.918 227.175 C 269.437 228.454 270.131 230.756 270.460 232.291 C 270.798 233.864 271.511 234.802 272.096 234.441 C 272.667 234.088 273.050 234.407 272.948 235.150 C 272.486 238.521 273.090 239.869 275.000 239.725 C 276.100 239.642 277.000 239.194 277.000 238.728 C 277.000 238.263 277.472 238.174 278.049 238.530 C 278.754 238.966 278.672 239.721 277.799 240.839 C 276.630 242.334 276.679 242.359 278.296 241.090 C 279.321 240.285 279.834 239.011 279.493 238.120 C 279.164 237.263 279.202 236.869 279.579 237.245 C 280.724 238.391 283.889 236.115 285.510 232.981 C 286.352 231.353 287.031 229.791 287.020 229.510 C 286.975 228.375 287.259 228.078 287.375 229.138 C 287.804 233.044 304.452 201.151 306.500 192.500 C 306.760 191.400 307.669 188.025 308.520 185.000 C 311.753 173.503 312.550 160.054 310.811 146.350 C 309.845 138.734 308.705 133.436 307.930 132.957 C 307.225 132.521 306.517 130.496 306.357 128.456 C 306.196 126.416 305.434 123.785 304.663 122.609 C 303.893 121.433 302.928 118.950 302.520 117.091 C 302.112 115.232 300.423 111.413 298.767 108.605 C 297.112 105.797 295.763 103.275 295.771 103.000 C 295.810 101.658 291.967 95.277 290.106 93.595 C 288.948 92.547 288.000 91.119 288.000 90.422 C 288.000 89.724 286.875 87.816 285.500 86.182 C 284.125 84.548 283.000 82.864 283.000 82.439 C 283.000 81.659 282.220 80.777 273.063 71.210 C 270.278 68.301 268.000 65.488 268.000 64.960 C 268.000 64.432 267.325 64.000 266.500 64.000 C 265.675 64.000 265.000 63.646 265.000 63.213 C 265.000 62.119 255.129 54.774 251.577 53.226 C 249.969 52.525 248.053 51.093 247.319 50.045 C 244.726 46.342 225.283 39.000 218.072 39.000 C 216.447 39.000 214.824 38.524 214.465 37.943 C 213.873 36.985 187.445 36.894 186.488 37.846 "/>
    </g>
    <g fill="#4499B5" stroke="#4499B5">
        <path d="M 332.686 140.700 C 332.408 141.149 332.127 148.712 332.061 157.508 C 331.934 174.435 331.133 181.553 327.900 194.500 C 324.722 207.225 315.497 228.849 308.915 239.000 C 308.380 239.825 307.678 241.288 307.354 242.250 C 307.031 243.213 306.369 244.000 305.883 244.000 C 305.398 244.000 305.000 244.638 305.000 245.417 C 305.000 246.196 304.663 246.983 304.250 247.167 C 302.819 247.803 290.500 263.054 290.500 264.189 C 290.500 264.635 290.050 265.000 289.500 265.000 C 288.950 265.000 288.500 265.450 288.500 266.000 C 288.500 266.550 288.050 266.918 287.500 266.818 C 286.950 266.718 285.828 267.833 285.007 269.296 C 283.661 271.694 283.698 272.473 285.379 277.228 C 286.405 280.127 287.546 282.725 287.915 283.000 C 288.284 283.275 289.901 286.133 291.508 289.352 C 293.115 292.571 295.451 296.171 296.698 297.352 C 297.945 298.533 298.973 299.984 298.983 300.575 C 298.992 301.167 303.184 305.667 308.298 310.575 C 317.096 319.020 327.434 326.333 330.574 326.333 C 331.358 326.333 332.032 326.821 332.070 327.417 C 332.109 328.013 332.527 327.600 333.000 326.500 C 333.715 324.837 333.871 324.789 333.930 326.215 C 334.017 328.350 337.569 330.346 340.102 329.684 C 341.146 329.411 342.000 329.483 342.000 329.844 C 342.000 330.205 345.600 330.545 350.000 330.600 C 354.400 330.655 358.000 330.318 358.000 329.850 C 358.000 329.383 356.012 329.000 353.582 329.000 C 351.152 329.000 348.454 328.728 347.588 328.395 C 344.291 327.130 347.388 326.000 354.151 326.000 C 359.603 326.000 361.740 325.563 363.656 324.056 C 366.981 321.441 369.968 322.426 366.868 325.115 C 365.672 326.152 363.975 327.014 363.097 327.030 C 361.678 327.057 361.686 327.169 363.164 328.032 C 364.985 329.095 368.000 328.348 368.000 326.834 C 368.000 326.310 368.450 326.160 369.000 326.500 C 369.550 326.840 370.000 326.615 370.000 326.000 C 370.000 325.385 370.369 325.110 370.821 325.389 C 371.272 325.668 373.013 325.062 374.689 324.043 C 376.877 322.712 377.668 321.529 377.496 319.845 C 377.363 318.555 377.121 317.950 376.957 318.500 C 376.681 319.424 376.513 318.434 376.142 313.691 C 376.064 312.696 375.550 312.160 375.000 312.500 C 374.450 312.840 374.000 312.191 374.000 311.059 C 374.000 308.422 375.605 308.381 376.290 311.000 C 376.997 313.704 378.618 313.515 381.512 310.393 C 384.413 307.262 384.313 305.550 381.250 305.892 C 380.013 306.030 379.000 305.661 379.000 305.072 C 379.000 303.666 381.564 303.713 385.654 305.192 C 389.247 306.491 390.916 305.808 389.200 303.741 C 388.509 302.908 388.452 301.900 389.042 300.966 C 389.552 300.160 390.026 299.725 390.095 300.000 C 390.165 300.275 390.158 299.375 390.080 298.000 C 389.941 295.536 389.963 295.529 391.604 297.500 C 393.165 299.375 393.228 299.381 392.606 297.595 C 391.865 295.462 395.366 291.000 397.781 291.000 C 398.644 291.000 398.985 290.403 398.638 289.500 C 398.322 288.675 398.472 288.000 398.972 288.000 C 400.367 288.000 401.156 289.786 400.060 290.463 C 399.525 290.794 399.335 291.837 399.638 292.782 C 400.106 294.241 400.026 294.274 399.110 293.000 C 398.237 291.787 398.028 292.037 398.015 294.309 C 398.007 295.854 397.601 296.871 397.113 296.570 C 395.939 295.844 393.661 298.643 394.423 299.876 C 394.751 300.405 394.296 301.562 393.412 302.445 C 392.465 303.392 392.077 304.759 392.467 305.776 C 392.831 306.724 393.064 307.139 392.984 306.697 C 392.904 306.256 393.569 304.781 394.461 303.419 C 395.353 302.057 395.778 300.449 395.404 299.845 C 394.946 299.103 395.233 299.031 396.292 299.624 C 397.153 300.106 397.933 300.725 398.024 301.000 C 398.116 301.275 398.402 301.159 398.659 300.743 C 398.916 300.327 398.423 299.716 397.563 299.386 C 396.704 299.056 396.000 298.398 396.000 297.924 C 396.000 297.451 396.617 297.300 397.371 297.589 C 398.125 297.878 399.022 297.386 399.364 296.494 C 399.715 295.579 400.492 295.186 401.147 295.591 C 401.843 296.021 402.040 295.874 401.638 295.224 C 401.269 294.627 401.425 293.856 401.984 293.510 C 402.543 293.165 403.000 291.994 403.000 290.909 C 403.000 289.823 403.933 288.590 405.074 288.168 C 406.215 287.746 407.115 287.086 407.074 286.700 C 406.858 284.662 407.095 284.024 407.984 284.250 C 408.526 284.388 408.275 283.488 407.428 282.250 C 406.418 280.775 404.872 280.000 402.943 280.000 C 399.819 280.000 399.440 279.414 401.000 277.000 C 401.646 276.000 401.974 275.917 401.985 276.750 C 402.011 278.888 404.624 278.121 405.753 275.644 C 406.343 274.348 406.667 270.983 406.472 268.166 C 406.277 265.350 406.566 262.768 407.115 262.429 C 407.743 262.041 408.032 264.008 407.897 267.746 C 407.780 271.009 407.983 274.163 408.349 274.755 C 408.715 275.348 408.594 276.938 408.080 278.289 C 407.440 279.974 407.516 281.116 408.323 281.923 C 409.501 283.101 409.593 282.954 409.875 279.441 C 409.944 278.584 410.445 278.157 410.989 278.493 C 411.541 278.834 411.731 278.463 411.420 277.653 C 411.114 276.855 411.352 275.901 411.948 275.532 C 412.545 275.163 412.743 274.393 412.388 273.819 C 412.034 273.246 412.324 272.418 413.032 271.980 C 413.741 271.542 414.436 270.130 414.577 268.842 C 414.718 267.554 414.909 266.500 415.002 266.500 C 415.094 266.500 415.385 262.707 415.649 258.072 C 416.153 249.206 414.264 238.453 411.155 232.500 C 410.294 230.850 409.681 229.163 409.794 228.750 C 409.907 228.338 409.625 228.000 409.167 228.000 C 408.708 228.000 408.333 227.411 408.333 226.691 C 408.333 224.871 400.157 213.000 398.904 213.000 C 398.342 213.000 398.129 212.601 398.430 212.113 C 398.731 211.626 398.308 210.671 397.489 209.991 C 396.670 209.311 396.000 209.135 396.000 209.600 C 396.000 210.065 395.221 209.332 394.268 207.973 C 393.316 206.613 392.701 205.291 392.903 205.036 C 393.308 204.525 391.455 203.439 388.750 202.604 C 387.788 202.306 386.987 201.261 386.971 200.281 C 386.940 198.427 381.666 192.000 380.175 192.000 C 379.705 192.000 378.797 190.850 378.156 189.444 C 377.516 188.038 376.612 187.122 376.147 187.409 C 375.683 187.696 374.233 186.934 372.925 185.715 C 371.260 184.165 370.990 183.498 372.023 183.493 C 373.006 183.488 372.750 182.956 371.256 181.903 C 370.022 181.033 369.310 180.023 369.673 179.660 C 370.036 179.297 369.633 179.000 368.777 179.000 C 366.363 179.000 363.056 175.767 362.640 173.000 C 362.400 171.400 361.704 170.600 360.708 170.776 C 359.834 170.932 358.848 170.095 358.458 168.869 C 358.077 167.668 355.918 164.843 353.660 162.592 C 351.402 160.342 349.542 158.050 349.527 157.500 C 349.512 156.950 348.938 156.500 348.250 156.500 C 347.563 156.500 347.035 156.050 347.077 155.500 C 347.120 154.950 346.332 154.050 345.327 153.500 C 343.726 152.624 341.376 149.858 341.758 149.299 C 341.834 149.189 339.937 147.025 337.543 144.491 C 335.149 141.957 332.963 140.251 332.686 140.700 M 407.156 233.750 C 407.404 236.524 407.905 240.197 408.587 244.245 C 409.424 249.215 408.524 251.680 406.488 249.990 C 405.670 249.311 405.000 248.165 405.000 247.443 C 405.000 246.721 404.484 244.863 403.854 243.315 C 403.224 241.767 402.814 239.200 402.944 237.612 C 403.306 233.177 406.818 229.958 407.156 233.750 "/>
    </g>
    <g fill="#4499B5" stroke="#4499B5">
        <path d="M 266.000 287.059 C 266.000 287.641 265.552 287.841 265.004 287.503 C 264.457 287.164 263.529 287.925 262.943 289.194 C 261.467 292.386 235.167 312.019 225.085 317.454 C 220.529 319.911 216.171 322.443 215.400 323.083 C 214.299 323.997 214.002 327.902 214.008 341.372 C 214.016 361.355 214.790 367.038 219.462 381.452 C 226.113 401.972 233.005 413.165 248.433 428.500 C 263.006 442.985 275.157 450.093 294.000 455.155 C 301.322 457.122 304.824 457.429 319.261 457.374 C 328.480 457.339 336.338 456.995 336.724 456.610 C 337.109 456.224 335.137 453.792 332.341 451.204 C 321.470 441.143 314.818 430.400 311.447 417.458 C 309.118 408.515 309.586 402.619 313.709 389.000 C 315.167 384.182 319.392 374.919 320.582 373.932 C 321.350 373.295 321.731 372.374 321.430 371.887 C 321.129 371.399 321.359 371.000 321.941 371.000 C 322.523 371.000 323.000 370.585 323.000 370.077 C 323.000 369.569 324.238 367.850 325.750 366.256 C 335.799 355.666 338.000 353.143 338.000 352.213 C 338.000 351.638 338.563 350.940 339.250 350.662 C 339.938 350.385 339.600 350.113 338.500 350.058 C 337.400 350.003 333.486 348.894 329.802 347.594 C 326.118 346.293 322.855 345.478 322.552 345.781 C 322.248 346.085 322.000 345.822 322.000 345.198 C 322.000 344.574 321.409 344.290 320.687 344.567 C 319.965 344.844 318.545 344.155 317.532 343.035 C 316.519 341.916 315.085 341.000 314.345 341.000 C 313.605 341.000 313.000 340.550 313.000 340.000 C 313.000 339.450 312.663 339.104 312.250 339.232 C 311.838 339.360 310.473 338.572 309.218 337.482 C 307.962 336.392 306.583 335.500 306.152 335.500 C 305.721 335.500 304.160 334.197 302.684 332.604 C 301.208 331.011 300.000 330.054 300.000 330.478 C 300.000 330.901 298.200 329.336 296.000 327.000 C 293.800 324.664 291.944 323.033 291.875 323.376 C 291.806 323.719 291.694 323.573 291.625 323.050 C 291.462 321.812 289.038 319.388 288.875 320.300 C 288.806 320.685 288.694 320.625 288.625 320.167 C 288.556 319.709 287.150 318.078 285.500 316.542 C 283.850 315.007 283.400 314.322 284.500 315.021 C 285.600 315.720 284.786 314.763 282.692 312.896 C 280.597 311.028 278.785 308.805 278.663 307.955 C 278.368 305.887 272.714 297.004 271.691 297.002 C 271.246 297.001 271.138 296.586 271.450 296.081 C 271.763 295.575 271.307 294.450 270.438 293.581 C 269.568 292.711 269.126 292.000 269.454 292.000 C 269.783 292.000 269.353 290.650 268.500 289.000 C 266.901 285.908 266.000 285.208 266.000 287.059 "/>
    </g>
    <g fill="#00FDD1" stroke="#00FDD1">
        <path d="M 162.434 180.107 C 162.150 180.566 163.058 181.228 164.452 181.577 C 165.846 181.927 166.738 182.615 166.434 183.107 C 165.748 184.217 161.296 184.288 160.623 183.199 C 160.351 182.759 158.316 182.292 156.101 182.161 C 153.118 181.985 150.961 182.644 147.787 184.702 C 145.429 186.230 143.140 188.047 142.700 188.740 C 142.260 189.433 141.248 190.000 140.450 190.000 C 139.517 190.000 139.000 191.032 139.000 192.893 C 139.000 195.686 136.983 197.543 134.380 197.144 C 133.765 197.049 130.975 200.016 128.182 203.736 C 125.388 207.456 122.179 211.696 121.051 213.158 C 119.923 214.620 119.000 216.083 119.000 216.408 C 119.000 217.518 125.596 217.004 126.800 215.800 C 127.592 215.008 128.000 214.969 128.000 215.685 C 128.000 217.292 123.040 220.250 120.344 220.250 C 118.525 220.250 118.000 220.797 118.000 222.692 C 118.000 224.680 117.627 225.017 116.000 224.500 C 114.853 224.136 114.000 224.320 114.000 224.933 C 114.000 225.520 114.450 226.000 115.000 226.000 C 116.228 226.000 116.302 232.976 115.093 234.883 C 114.449 235.901 114.036 235.442 113.532 233.145 C 112.620 228.994 111.261 228.333 109.879 231.366 C 109.142 232.984 109.062 234.825 109.650 236.672 C 110.145 238.227 110.269 241.525 109.925 244.000 C 109.582 246.475 109.226 247.600 109.135 246.500 C 108.862 243.197 107.008 246.935 107.151 250.500 C 107.238 252.656 107.390 252.897 107.692 251.358 C 107.982 249.874 108.663 249.361 109.909 249.686 C 111.411 250.079 111.689 251.174 111.598 256.328 C 111.461 264.117 112.642 271.159 114.256 272.167 C 115.166 272.735 114.907 273.362 113.292 274.499 C 111.035 276.089 111.132 278.228 113.575 280.702 C 115.151 282.299 116.000 281.295 116.000 277.833 C 116.000 276.275 116.450 275.000 117.000 275.000 C 117.908 275.000 118.482 278.609 118.075 281.750 C 117.985 282.438 118.412 283.000 119.024 283.000 C 119.663 283.000 119.877 283.813 119.527 284.916 C 119.192 285.970 119.382 287.118 119.948 287.468 C 120.560 287.846 120.736 287.475 120.382 286.552 C 120.054 285.698 120.284 285.000 120.893 285.000 C 121.502 285.000 122.000 285.450 122.000 286.000 C 122.000 286.550 122.675 287.000 123.500 287.000 C 124.325 287.000 125.000 287.503 125.000 288.118 C 125.000 289.512 132.399 297.000 133.777 297.000 C 135.463 297.000 141.000 302.690 141.000 304.423 C 141.000 305.314 142.013 306.520 143.250 307.104 C 145.958 308.381 150.000 314.370 150.000 317.105 C 150.000 318.787 149.700 318.910 147.914 317.954 C 144.189 315.960 144.555 317.928 148.576 321.506 C 150.734 323.427 152.838 324.999 153.250 324.999 C 153.663 325.000 154.000 325.624 154.000 326.386 C 154.000 327.770 160.825 335.000 162.132 335.000 C 164.006 335.000 161.880 331.471 157.686 327.620 C 155.109 325.254 153.000 322.539 153.000 321.588 C 153.000 319.992 153.126 319.984 154.621 321.478 C 155.512 322.369 157.537 323.357 159.121 323.674 C 160.704 323.991 162.000 324.609 162.000 325.048 C 162.000 325.487 163.070 327.119 164.379 328.673 C 165.687 330.228 166.941 332.400 167.167 333.500 C 167.406 334.667 168.309 335.439 169.333 335.354 C 170.299 335.273 171.796 336.286 172.660 337.604 C 173.523 338.922 174.845 340.000 175.596 340.000 C 176.347 340.000 177.247 341.137 177.596 342.526 C 177.945 343.916 179.078 345.507 180.115 346.062 C 182.005 347.073 182.709 349.000 181.189 349.000 C 180.742 349.000 179.493 348.177 178.413 347.170 C 177.333 346.164 175.223 344.537 173.724 343.555 C 171.374 342.015 171.000 341.982 171.000 343.312 C 171.000 344.161 172.125 345.740 173.500 346.821 C 174.875 347.903 176.000 349.286 176.000 349.894 C 176.000 350.502 176.369 351.000 176.820 351.000 C 178.313 351.000 183.726 356.463 184.407 358.658 C 185.240 361.342 187.879 362.479 188.645 360.483 C 189.798 357.479 191.000 359.133 191.000 363.723 C 191.000 367.957 191.136 368.241 192.314 366.473 C 194.239 363.582 194.362 358.076 192.518 357.368 C 191.683 357.048 191.000 356.358 191.000 355.834 C 191.000 355.310 191.364 355.107 191.810 355.382 C 192.255 355.657 192.234 353.097 191.762 349.691 C 190.392 339.785 190.863 316.422 192.623 307.000 C 193.496 302.325 195.545 294.065 197.175 288.644 C 198.806 283.223 200.177 277.485 200.222 275.894 C 200.267 274.302 200.672 273.000 201.121 273.000 C 201.571 273.000 203.127 270.413 204.580 267.250 C 206.033 264.088 207.666 260.647 208.210 259.605 C 209.005 258.080 208.896 257.826 207.650 258.304 C 206.584 258.713 206.274 258.448 206.656 257.455 C 206.960 256.661 207.558 256.227 207.983 256.489 C 208.694 256.929 214.000 249.826 214.000 248.435 C 214.000 247.104 220.741 238.223 225.235 233.634 C 227.856 230.958 230.000 228.478 230.000 228.124 C 230.000 227.769 231.036 226.359 232.301 224.990 C 236.522 220.424 236.230 218.202 230.750 213.164 C 229.788 212.279 229.000 211.220 229.000 210.811 C 229.000 209.416 211.901 193.000 210.448 193.000 C 209.651 193.000 209.000 192.580 209.000 192.067 C 209.000 191.554 208.179 190.874 207.176 190.556 C 206.173 190.238 204.486 189.195 203.426 188.239 C 201.387 186.398 198.422 184.794 193.500 182.867 C 188.852 181.047 187.664 180.994 185.361 182.501 C 184.155 183.290 181.538 183.755 179.361 183.566 L 175.500 183.231 178.831 182.475 C 180.973 181.988 181.719 181.444 180.921 180.951 C 180.239 180.530 179.004 180.445 178.177 180.762 C 177.174 181.147 176.921 180.936 177.420 180.130 C 177.983 179.219 176.290 178.964 170.558 179.097 C 166.373 179.194 162.717 179.649 162.434 180.107 "/>
    </g>
    <g fill="#25B9A9" stroke="#25B9A9">
        <path d="M 147.027 183.977 C 145.744 185.089 144.381 186.000 143.998 186.000 C 142.737 186.000 129.193 199.425 126.813 203.034 C 124.278 206.877 122.700 208.883 119.260 212.630 C 118.028 213.972 116.747 216.161 116.412 217.494 C 116.078 218.827 115.173 220.442 114.402 221.081 C 113.631 221.721 113.000 223.252 113.000 224.482 C 113.000 225.713 111.957 227.503 110.682 228.461 C 108.929 229.777 108.305 231.330 108.124 234.828 C 107.992 237.372 107.436 239.731 106.887 240.070 C 106.287 240.441 105.969 246.112 106.087 254.314 C 106.196 261.810 106.671 267.703 107.144 267.411 C 107.617 267.119 108.453 268.061 109.002 269.505 C 110.384 273.140 110.200 273.849 108.468 271.559 C 106.350 268.758 106.664 270.573 109.126 275.364 C 110.295 277.639 111.687 280.349 112.220 281.387 C 112.752 282.425 114.068 284.840 115.143 286.755 C 116.218 288.669 116.888 290.445 116.632 290.701 C 116.376 290.957 117.029 292.029 118.083 293.083 C 119.138 294.138 120.000 294.718 120.000 294.373 C 120.000 294.029 121.688 296.047 123.750 298.858 C 125.813 301.670 128.011 303.976 128.635 303.985 C 129.259 303.993 130.439 305.021 131.257 306.269 C 132.074 307.517 139.551 315.408 147.872 323.805 C 156.192 332.201 163.000 339.505 163.000 340.036 C 163.000 340.566 163.338 340.888 163.750 340.750 C 164.778 340.408 183.000 358.417 183.000 359.775 C 183.000 360.374 184.376 361.844 186.058 363.041 C 187.739 364.238 188.863 365.470 188.555 365.778 C 187.761 366.572 191.050 370.000 192.605 370.000 C 193.318 370.000 194.311 370.733 194.812 371.628 C 195.499 372.857 195.912 372.952 196.490 372.017 C 196.913 371.332 196.713 370.440 196.043 370.026 C 195.375 369.614 194.868 368.989 194.915 368.638 C 194.962 368.287 195.000 366.125 195.000 363.833 C 195.000 359.563 193.919 359.122 193.493 363.218 C 193.362 364.473 193.198 366.063 193.128 366.750 C 193.057 367.438 192.550 368.000 192.000 368.000 C 191.450 368.000 191.000 365.975 191.000 363.500 C 191.000 359.098 189.777 357.532 188.645 360.483 C 187.879 362.479 185.240 361.342 184.407 358.658 C 183.726 356.463 178.313 351.000 176.820 351.000 C 176.369 351.000 176.000 350.502 176.000 349.894 C 176.000 349.286 174.875 347.903 173.500 346.821 C 172.125 345.740 171.000 344.161 171.000 343.312 C 171.000 341.982 171.374 342.015 173.724 343.555 C 175.223 344.537 177.333 346.164 178.413 347.170 C 179.493 348.177 180.742 349.000 181.189 349.000 C 182.709 349.000 182.005 347.073 180.115 346.062 C 179.078 345.507 177.945 343.916 177.596 342.526 C 177.247 341.137 176.347 340.000 175.596 340.000 C 174.845 340.000 173.523 338.922 172.660 337.604 C 171.796 336.286 170.299 335.273 169.333 335.354 C 168.309 335.439 167.406 334.667 167.167 333.500 C 166.941 332.400 165.687 330.228 164.379 328.673 C 163.070 327.119 162.000 325.487 162.000 325.048 C 162.000 324.609 160.704 323.991 159.121 323.674 C 157.537 323.357 155.512 322.369 154.621 321.478 C 153.126 319.984 153.000 319.992 153.000 321.588 C 153.000 322.539 155.109 325.254 157.686 327.620 C 161.880 331.471 164.006 335.000 162.132 335.000 C 160.825 335.000 154.000 327.770 154.000 326.386 C 154.000 325.624 153.632 325.000 153.182 325.000 C 152.732 325.000 150.613 323.443 148.475 321.540 C 144.495 318.000 144.175 315.953 147.914 317.954 C 149.700 318.910 150.000 318.787 150.000 317.105 C 150.000 314.370 145.958 308.381 143.250 307.104 C 142.013 306.520 141.000 305.314 141.000 304.423 C 141.000 302.690 135.463 297.000 133.777 297.000 C 132.399 297.000 125.000 289.512 125.000 288.118 C 125.000 287.503 124.325 287.000 123.500 287.000 C 122.675 287.000 122.000 286.550 122.000 286.000 C 122.000 285.450 121.502 285.000 120.893 285.000 C 120.284 285.000 120.054 285.698 120.382 286.552 C 120.736 287.475 120.560 287.846 119.948 287.468 C 119.382 287.118 119.192 285.970 119.527 284.916 C 119.877 283.813 119.663 283.000 119.024 283.000 C 118.412 283.000 117.985 282.438 118.075 281.750 C 118.482 278.609 117.908 275.000 117.000 275.000 C 116.450 275.000 116.000 276.275 116.000 277.833 C 116.000 281.295 115.151 282.299 113.575 280.702 C 111.132 278.228 111.035 276.089 113.292 274.499 C 114.907 273.362 115.166 272.735 114.256 272.167 C 112.642 271.159 111.461 264.117 111.598 256.328 C 111.689 251.174 111.411 250.079 109.909 249.686 C 108.663 249.361 107.982 249.874 107.692 251.358 C 107.390 252.897 107.238 252.656 107.151 250.500 C 107.008 246.935 108.862 243.197 109.135 246.500 C 109.226 247.600 109.582 246.475 109.925 244.000 C 110.269 241.525 110.145 238.227 109.650 236.672 C 109.062 234.825 109.142 232.984 109.879 231.366 C 111.261 228.333 112.620 228.994 113.532 233.145 C 114.036 235.442 114.449 235.901 115.093 234.883 C 116.302 232.976 116.228 226.000 115.000 226.000 C 114.450 226.000 114.000 225.520 114.000 224.933 C 114.000 224.320 114.853 224.136 116.000 224.500 C 117.627 225.017 118.000 224.680 118.000 222.692 C 118.000 220.797 118.525 220.250 120.344 220.250 C 123.040 220.250 128.000 217.292 128.000 215.685 C 128.000 214.969 127.592 215.008 126.800 215.800 C 125.596 217.004 119.000 217.518 119.000 216.408 C 119.000 216.083 119.923 214.620 121.051 213.158 C 122.179 211.696 125.388 207.456 128.182 203.736 C 130.975 200.016 133.765 197.049 134.380 197.144 C 136.983 197.543 139.000 195.686 139.000 192.893 C 139.000 191.032 139.517 190.000 140.450 190.000 C 141.248 190.000 142.260 189.413 142.700 188.695 C 143.140 187.977 145.267 186.317 147.427 185.004 C 149.587 183.692 150.905 182.468 150.357 182.286 C 149.809 182.103 148.310 182.864 147.027 183.977 "/>
    </g>
    <g fill="#00FDD1" stroke="#00FDD1">
        <path d="M 248.070 240.911 C 248.032 241.687 246.569 243.599 244.820 245.161 C 243.071 246.722 241.971 248.000 242.377 248.000 C 242.782 248.000 242.447 248.952 241.632 250.115 C 240.817 251.278 240.420 252.931 240.749 253.788 C 241.181 254.915 240.904 255.177 239.750 254.734 C 238.601 254.293 237.850 254.990 237.072 257.223 C 236.477 258.929 236.155 260.488 236.356 260.689 C 236.556 260.889 234.971 262.954 232.832 265.277 C 229.202 269.220 228.257 271.046 227.628 275.330 C 227.490 276.272 227.142 276.809 226.856 276.523 C 226.570 276.237 225.751 277.240 225.037 278.752 C 224.322 280.263 222.893 283.142 221.861 285.149 C 220.829 287.156 220.262 289.519 220.600 290.399 C 220.938 291.280 220.788 292.000 220.268 292.000 C 218.627 292.000 216.765 297.165 217.971 298.371 C 218.727 299.127 219.773 298.646 221.560 296.719 C 222.946 295.224 224.653 294.000 225.352 294.000 C 226.052 294.000 227.622 292.650 228.842 291.000 C 230.062 289.350 231.675 288.000 232.426 288.000 C 233.178 288.000 235.147 286.458 236.802 284.572 C 238.457 282.687 240.013 281.346 240.259 281.592 C 240.504 281.838 244.269 278.292 248.625 273.713 C 255.930 266.034 258.238 261.883 255.980 260.488 C 255.489 260.184 255.334 259.293 255.636 258.506 C 256.256 256.890 252.141 242.205 250.843 241.403 C 250.379 241.116 249.968 241.471 249.930 242.191 C 249.891 242.911 249.473 242.600 249.000 241.500 C 248.497 240.330 248.111 240.086 248.070 240.911 "/>
    </g>
    <g fill="#25B9A9" stroke="#25B9A9">
        <path d="M 398.638 289.500 C 398.985 290.403 398.644 291.000 397.781 291.000 C 395.366 291.000 391.865 295.462 392.606 297.595 C 393.228 299.381 393.165 299.375 391.604 297.500 C 389.963 295.529 389.941 295.536 390.080 298.000 C 390.158 299.375 390.165 300.275 390.095 300.000 C 390.026 299.725 389.552 300.160 389.042 300.966 C 388.452 301.900 388.509 302.908 389.200 303.741 C 390.916 305.808 389.247 306.491 385.654 305.192 C 381.564 303.713 379.000 303.666 379.000 305.072 C 379.000 305.661 380.013 306.030 381.250 305.892 C 384.313 305.550 384.413 307.262 381.512 310.393 C 378.618 313.515 376.997 313.704 376.290 311.000 C 375.605 308.381 374.000 308.422 374.000 311.059 C 374.000 312.191 374.450 312.840 375.000 312.500 C 376.003 311.880 376.143 312.441 376.375 317.988 C 376.482 320.540 376.209 320.884 374.508 320.344 C 372.767 319.791 372.685 319.915 373.857 321.328 C 375.089 322.813 375.391 322.804 377.572 321.222 C 378.923 320.243 379.719 318.866 379.420 318.030 C 379.131 317.222 379.178 316.844 379.524 317.191 C 379.871 317.537 381.524 316.399 383.199 314.660 C 384.873 312.922 386.639 311.613 387.122 311.750 C 387.605 311.888 388.000 311.523 388.000 310.941 C 388.000 310.359 388.521 310.204 389.158 310.597 C 389.951 311.088 390.138 310.634 389.751 309.156 C 389.371 307.703 389.646 307.000 390.594 307.000 C 391.367 307.000 392.000 306.306 392.000 305.458 C 392.000 304.610 392.904 302.923 394.009 301.708 C 395.114 300.494 395.564 299.613 395.009 299.750 C 393.612 300.096 393.746 298.654 395.250 297.150 C 396.023 296.377 396.548 296.301 396.625 296.950 C 397.001 300.105 397.664 298.690 397.890 294.250 C 398.005 292.008 398.230 291.777 399.110 293.000 C 400.026 294.274 400.106 294.241 399.638 292.782 C 399.335 291.837 399.525 290.794 400.060 290.463 C 401.156 289.786 400.367 288.000 398.972 288.000 C 398.472 288.000 398.322 288.675 398.638 289.500 "/>
    </g>
    <g fill="#4499B5" stroke="#4499B5">
        <path d="M 105.083 242.049 C 103.726 248.376 103.721 262.079 105.074 267.950 C 106.161 272.667 113.849 289.268 115.208 289.835 C 115.651 290.020 115.795 290.522 115.530 290.952 C 115.264 291.381 115.937 292.538 117.024 293.521 C 118.111 294.505 119.000 294.838 119.000 294.262 C 119.000 293.686 118.296 292.944 117.437 292.614 C 116.577 292.284 116.135 291.590 116.456 291.072 C 116.776 290.553 116.172 288.587 115.113 286.702 C 114.054 284.816 112.752 282.425 112.220 281.387 C 111.687 280.349 110.295 277.639 109.126 275.364 C 106.664 270.573 106.350 268.758 108.468 271.559 C 110.200 273.849 110.384 273.140 109.002 269.505 C 108.453 268.061 107.615 267.120 107.141 267.413 C 106.666 267.706 106.192 261.658 106.087 253.973 C 105.960 244.741 106.252 240.000 106.948 240.000 C 107.526 240.000 108.000 239.325 108.000 238.500 C 108.000 235.047 106.085 237.377 105.083 242.049 "/>
    </g>
    <g fill="#4499B5" stroke="#4499B5">
        <path d="M 193.500 305.500 C 191.962 310.114 192.243 349.225 193.872 357.295 C 194.626 361.032 195.453 363.880 195.709 363.624 C 195.965 363.368 195.651 360.637 195.012 357.555 C 194.032 352.837 193.594 320.156 194.320 306.000 L 194.500 302.500 193.500 305.500 "/>
    </g>
    <g fill="#25B9A9" stroke="#25B9A9">
        <path d="M 404.340 233.400 C 402.723 235.245 402.491 239.968 403.854 243.315 C 404.484 244.863 405.000 246.721 405.000 247.443 C 405.000 248.165 405.670 249.311 406.488 249.990 C 408.524 251.680 409.424 249.215 408.587 244.245 C 407.905 240.197 407.404 236.524 407.156 233.750 C 406.972 231.687 405.952 231.560 404.340 233.400 "/>
    </g>
    <g fill="#25B9A9" stroke="#25B9A9">
        <path d="M 198.507 185.011 C 198.843 185.555 199.766 186.000 200.559 186.000 C 201.352 186.000 202.000 186.379 202.000 186.843 C 202.000 187.306 203.575 188.533 205.500 189.570 C 207.425 190.607 209.000 191.802 209.000 192.227 C 209.000 192.652 209.677 193.000 210.505 193.000 C 212.103 193.000 229.000 209.429 229.000 210.984 C 229.000 211.488 229.596 212.260 230.324 212.700 C 232.645 214.102 236.261 219.769 235.559 220.905 C 235.187 221.507 235.310 222.000 235.834 222.000 C 236.358 222.000 237.034 221.355 237.336 220.566 C 237.836 219.263 235.186 215.659 228.000 207.864 C 226.625 206.373 223.700 203.097 221.500 200.584 C 219.300 198.072 216.968 196.012 216.317 196.008 C 215.667 196.004 214.849 195.100 214.500 194.000 C 214.151 192.900 213.216 192.000 212.422 192.000 C 211.629 192.000 208.847 190.510 206.240 188.688 C 201.117 185.108 197.506 183.391 198.507 185.011 "/>
    </g>
    <g fill="#25B9A9" stroke="#25B9A9">
        <path d="M 363.656 324.056 C 361.740 325.563 359.603 326.000 354.151 326.000 C 347.421 326.000 344.008 327.269 347.735 328.384 C 349.423 328.889 359.856 329.379 363.000 329.102 C 364.333 328.984 364.333 328.862 363.000 328.000 C 361.689 327.152 361.701 327.029 363.097 327.015 C 363.975 327.007 365.672 326.152 366.868 325.115 C 369.968 322.426 366.981 321.441 363.656 324.056 "/>
    </g>
    <g fill="#25B9A9" stroke="#25B9A9">
        <path d="M 203.532 164.051 C 203.854 164.573 204.658 165.000 205.317 165.000 C 205.976 165.000 208.594 166.106 211.133 167.458 C 213.673 168.810 216.032 169.635 216.375 169.291 C 216.719 168.948 217.000 169.192 217.000 169.833 C 217.000 170.475 217.675 171.000 218.500 171.000 C 219.325 171.000 220.000 171.450 220.000 172.000 C 220.000 172.550 220.563 173.005 221.250 173.010 C 223.048 173.025 228.925 178.090 240.224 189.362 C 245.661 194.786 250.371 198.962 250.692 198.642 C 251.210 198.123 246.257 193.174 231.180 179.146 C 225.804 174.145 216.630 168.000 214.540 168.000 C 213.758 168.000 212.866 167.592 212.558 167.094 C 212.250 166.595 209.961 165.493 207.472 164.645 C 204.982 163.797 203.209 163.530 203.532 164.051 "/>
    </g>
</svg>
